<svg xmlns="http://www.w3.org/2000/svg" viewBox="0 0 188 39"><g fill-rule="nonzero" fill="none"><path d="M4.06 38V27.308h.036L8.11 38h1.458l4.014-10.692h.036V38h1.62V25.148h-2.34l-4.068 10.8-4.05-10.8H2.44V38h1.62zm20.104.288c1.62 0 2.868-.411 3.744-1.233.876-.822 1.314-2.055 1.314-3.699v-8.208h-1.71v8.208c0 1.152-.285 2.025-.855 2.619-.57.594-1.401.891-2.493.891-1.152 0-2.034-.297-2.646-.891-.612-.594-.918-1.467-.918-2.619v-8.208h-1.71v8.208c0 1.716.465 2.967 1.395 3.753.93.786 2.223 1.179 3.879 1.179zM41.352 38v-1.44h-6.804V25.148h-1.71V38h8.514zm5.344 0V26.588h4.284v-1.44H40.702v1.44h4.284V38h1.71zm8.368 0V25.148h-1.71V38h1.71zm8.332.288c.588 0 1.179-.069 1.773-.207a5.13 5.13 0 001.611-.666c.48-.306.873-.702 1.179-1.188.306-.486.459-1.071.459-1.755 0-.636-.117-1.164-.351-1.584a3.127 3.127 0 00-.936-1.044 4.958 4.958 0 00-1.323-.657 17.945 17.945 0 00-1.503-.423c-.51-.12-1.011-.231-1.503-.333a7.87 7.87 0 01-1.323-.387c-.39-.156-.702-.357-.936-.603-.234-.246-.351-.567-.351-.963 0-.42.081-.771.243-1.053a1.89 1.89 0 01.648-.675 2.82 2.82 0 01.927-.36 5.228 5.228 0 011.062-.108c.888 0 1.617.207 2.187.621.57.414.903 1.083.999 2.007h1.62c-.024-.708-.159-1.317-.405-1.827a3.56 3.56 0 00-1.008-1.269 4.158 4.158 0 00-1.485-.738 6.867 6.867 0 00-1.836-.234c-.588 0-1.161.075-1.719.225a4.726 4.726 0 00-1.494.684 3.462 3.462 0 00-1.053 1.17c-.264.474-.396 1.035-.396 1.683 0 .588.117 1.077.351 1.467.234.39.546.708.936.954s.831.444 1.323.594c.492.15.993.282 1.503.396l1.503.333c.492.108.933.249 1.323.423.39.174.702.399.936.675.234.276.351.636.351 1.08 0 .468-.096.852-.288 1.152-.192.3-.444.537-.756.711a3.42 3.42 0 01-1.053.369c-.39.072-.777.108-1.161.108-.48 0-.948-.06-1.404-.18a3.494 3.494 0 01-1.197-.558 2.864 2.864 0 01-.828-.963c-.21-.39-.315-.855-.315-1.395h-1.62c0 .78.141 1.455.423 2.025.282.57.666 1.038 1.152 1.404.486.366 1.05.639 1.692.819.642.18 1.323.27 2.043.27zM73.078 38v-5.256h3.924c1.296.012 2.277-.318 2.943-.99.666-.672.999-1.608.999-2.808 0-1.2-.333-2.133-.999-2.799-.666-.666-1.647-.999-2.943-.999h-5.634V38h1.71zm3.348-6.696h-3.348v-4.716h3.348c.972 0 1.683.201 2.133.603.45.402.675.987.675 1.755 0 .768-.225 1.356-.675 1.764-.45.408-1.161.606-2.133.594zm12.922 6.984c1.02 0 1.914-.183 2.682-.549a5.57 5.57 0 001.926-1.485 6.373 6.373 0 001.161-2.151c.258-.81.387-1.653.387-2.529 0-.876-.129-1.719-.387-2.529a6.373 6.373 0 00-1.161-2.151A5.667 5.667 0 0092.03 25.4c-.768-.372-1.662-.558-2.682-.558s-1.914.186-2.682.558c-.768.372-1.41.87-1.926 1.494a6.373 6.373 0 00-1.161 2.151 8.282 8.282 0 00-.387 2.529c0 .876.129 1.719.387 2.529.258.81.645 1.527 1.161 2.151a5.57 5.57 0 001.926 1.485c.768.366 1.662.549 2.682.549zm0-1.422c-.78 0-1.452-.153-2.016-.459a4.05 4.05 0 01-1.386-1.215 5.206 5.206 0 01-.792-1.701 7.409 7.409 0 010-3.834c.168-.63.432-1.197.792-1.701a4.05 4.05 0 011.386-1.215c.564-.306 1.236-.459 2.016-.459s1.452.153 2.016.459a4.05 4.05 0 011.386 1.215c.36.504.624 1.071.792 1.701a7.409 7.409 0 010 3.834 5.206 5.206 0 01-.792 1.701 4.05 4.05 0 01-1.386 1.215c-.564.306-1.236.459-2.016.459zM100.182 38v-5.49h4.176c.42 0 .756.063 1.008.189s.456.294.612.504c.156.21.27.456.342.738.072.282.132.579.18.891.06.312.096.63.108.954l.036.909c.012.282.039.537.081.765.042.228.123.408.243.54h1.908a2.197 2.197 0 01-.405-.747 5.855 5.855 0 01-.207-.891 8.286 8.286 0 01-.09-.954c-.012-.324-.03-.642-.054-.954a8.273 8.273 0 00-.153-.9 2.732 2.732 0 00-.306-.783 1.973 1.973 0 00-.558-.603c-.234-.168-.537-.288-.909-.36v-.036c.78-.216 1.347-.618 1.701-1.206.354-.588.531-1.272.531-2.052 0-1.044-.345-1.866-1.035-2.466-.69-.6-1.647-.9-2.871-.9h-6.048V38h1.71zm3.564-6.93h-3.564v-4.482h4.248c.804 0 1.386.204 1.746.612.36.408.54.936.54 1.584 0 .468-.081.849-.243 1.143a1.922 1.922 0 01-.648.702c-.27.174-.585.291-.945.351s-.738.09-1.134.09zM115.984 38V26.588h4.284v-1.44H109.99v1.44h4.284V38h1.71zm21.398 0v-1.44h-7.218v-4.446h6.678v-1.44h-6.678v-4.086h7.164v-1.44h-8.874V38h8.928zm8.008 0l4.572-12.852h-1.782l-3.708 11.142h-.036l-3.672-11.142h-1.836L143.446 38h1.944zm15.748 0v-1.44h-7.218v-4.446h6.678v-1.44h-6.678v-4.086h7.164v-1.44h-8.874V38h8.928zm4.552 0V27.686h.036L172.44 38h1.872V25.148h-1.62V35.57h-.036l-6.768-10.422h-1.818V38h1.62zm16.9 0V26.588h4.284v-1.44h-10.278v1.44h4.284V38h1.71z" fill="#FFF"/><path d="M4.952 19l1.456-4.134h6.942L14.754 19h4.238L12.05.436H7.864L.844 19h4.108zm7.332-7.176h-4.81l2.418-6.812h.052l2.34 6.812zm14.3 7.514c1.785 0 3.25-.468 4.394-1.404 1.144-.936 1.837-2.297 2.08-4.082h-3.562c-.121.832-.42 1.495-.897 1.989-.477.494-1.157.741-2.041.741-.572 0-1.057-.13-1.456-.39a2.913 2.913 0 01-.949-1.001 4.585 4.585 0 01-.507-1.365 7.302 7.302 0 010-3.003c.104-.511.282-.98.533-1.404.251-.425.576-.771.975-1.04s.893-.403 1.482-.403c1.577 0 2.487.771 2.73 2.314h3.614c-.052-.867-.26-1.616-.624-2.249a5.08 5.08 0 00-1.417-1.586 6.142 6.142 0 00-1.976-.949 8.428 8.428 0 00-2.301-.312c-1.092 0-2.063.182-2.912.546a6.129 6.129 0 00-2.158 1.521 6.522 6.522 0 00-1.339 2.314 8.955 8.955 0 00-.455 2.899c0 1.005.165 1.928.494 2.769.33.84.789 1.564 1.378 2.171a6.14 6.14 0 002.145 1.417c.84.338 1.764.507 2.769.507zm14.768 0c1.525 0 2.825-.347 3.9-1.04 1.075-.693 1.872-1.846 2.392-3.458h-3.25c-.121.416-.45.81-.988 1.183-.537.373-1.179.559-1.924.559-1.04 0-1.837-.269-2.392-.806-.555-.537-.858-1.404-.91-2.6h9.698a9.49 9.49 0 00-.26-2.99 7.319 7.319 0 00-1.183-2.548 5.967 5.967 0 00-2.093-1.781c-.85-.442-1.846-.663-2.99-.663-1.023 0-1.954.182-2.795.546a6.608 6.608 0 00-2.171 1.495 6.59 6.59 0 00-1.404 2.249 7.84 7.84 0 00-.494 2.808c0 1.04.16 1.993.481 2.86.32.867.776 1.612 1.365 2.236a5.947 5.947 0 002.158 1.443c.85.338 1.803.507 2.86.507zm2.834-8.502H38.18c.017-.26.074-.555.169-.884.095-.33.26-.641.494-.936.234-.295.546-.542.936-.741.39-.2.88-.299 1.469-.299.901 0 1.573.243 2.015.728.442.485.75 1.196.923 2.132zm16.9-7.358V.436h-3.692v3.042h3.692zm0 15.522V5.558h-3.692V19h3.692zm6.604 0v-7.046c0-1.37.225-2.353.676-2.951.45-.598 1.179-.897 2.184-.897.884 0 1.5.273 1.846.819.347.546.52 1.374.52 2.483V19h3.692v-8.268c0-.832-.074-1.59-.221-2.275-.147-.685-.403-1.265-.767-1.742-.364-.477-.862-.85-1.495-1.118-.633-.269-1.443-.403-2.431-.403-.78 0-1.543.178-2.288.533-.745.355-1.352.923-1.82 1.703h-.078V5.558h-3.51V19h3.692zm24.18.13c.364 0 .737-.009 1.118-.026a8.785 8.785 0 001.04-.104v-2.86c-.173.035-.355.06-.546.078a6.61 6.61 0 01-.598.026c-.624 0-1.04-.104-1.248-.312-.208-.208-.312-.624-.312-1.248V8.028h2.704v-2.47h-2.704v-4.03h-3.692v4.03h-2.236v2.47h2.236v7.93c0 .676.113 1.222.338 1.638.225.416.533.737.923.962.39.225.84.377 1.352.455.511.078 1.053.117 1.625.117zm7.618-.13v-7.046c0-1.37.225-2.353.676-2.951.45-.598 1.179-.897 2.184-.897.884 0 1.5.273 1.846.819.347.546.52 1.374.52 2.483V19h3.692v-8.268c0-.832-.074-1.59-.221-2.275-.147-.685-.403-1.265-.767-1.742-.364-.477-.862-.85-1.495-1.118-.633-.269-1.443-.403-2.431-.403-.693 0-1.404.178-2.132.533-.728.355-1.326.923-1.794 1.703h-.078V.436h-3.692V19h3.692zm17.94.338c1.525 0 2.825-.347 3.9-1.04 1.075-.693 1.872-1.846 2.392-3.458h-3.25c-.121.416-.45.81-.988 1.183-.537.373-1.179.559-1.924.559-1.04 0-1.837-.269-2.392-.806-.555-.537-.858-1.404-.91-2.6h9.698a9.49 9.49 0 00-.26-2.99 7.319 7.319 0 00-1.183-2.548 5.967 5.967 0 00-2.093-1.781c-.85-.442-1.846-.663-2.99-.663-1.023 0-1.954.182-2.795.546a6.608 6.608 0 00-2.171 1.495 6.59 6.59 0 00-1.404 2.249 7.84 7.84 0 00-.494 2.808c0 1.04.16 1.993.481 2.86.32.867.776 1.612 1.365 2.236a5.947 5.947 0 002.158 1.443c.85.338 1.803.507 2.86.507zm2.834-8.502h-6.006c.017-.26.074-.555.169-.884.095-.33.26-.641.494-.936.234-.295.546-.542.936-.741.39-.2.88-.299 1.469-.299.901 0 1.573.243 2.015.728.442.485.75 1.196.923 2.132zM137.838 19v-8.008h7.514V19h4.082V.436h-4.082V7.56h-7.514V.436h-4.082V19h4.082zm21.32.338c1.057 0 2.015-.165 2.873-.494a6.119 6.119 0 002.197-1.417 6.317 6.317 0 001.404-2.223c.33-.867.494-1.837.494-2.912s-.165-2.05-.494-2.925a6.295 6.295 0 00-1.404-2.236 6.266 6.266 0 00-2.197-1.43c-.858-.338-1.816-.507-2.873-.507-1.057 0-2.01.169-2.86.507a6.291 6.291 0 00-2.184 1.43 6.295 6.295 0 00-1.404 2.236c-.33.875-.494 1.85-.494 2.925 0 1.075.165 2.045.494 2.912.33.867.797 1.608 1.404 2.223a6.142 6.142 0 002.184 1.417c.85.33 1.803.494 2.86.494zm0-2.756c-.624 0-1.144-.121-1.56-.364a2.839 2.839 0 01-1.001-.975 4.19 4.19 0 01-.533-1.378 8.067 8.067 0 010-3.159c.104-.52.282-.98.533-1.378a2.994 2.994 0 011.001-.975c.416-.251.936-.377 1.56-.377s1.148.126 1.573.377c.425.251.763.576 1.014.975s.429.858.533 1.378a8.067 8.067 0 010 3.159 4.19 4.19 0 01-.533 1.378c-.251.407-.59.732-1.014.975-.425.243-.949.364-1.573.364zM172.314 19V.436h-3.692V19h3.692zm9.126.338c1.525 0 2.825-.347 3.9-1.04 1.075-.693 1.872-1.846 2.392-3.458h-3.25c-.121.416-.45.81-.988 1.183-.537.373-1.179.559-1.924.559-1.04 0-1.837-.269-2.392-.806-.555-.537-.858-1.404-.91-2.6h9.698a9.49 9.49 0 00-.26-2.99 7.319 7.319 0 00-1.183-2.548 5.967 5.967 0 00-2.093-1.781c-.85-.442-1.846-.663-2.99-.663-1.023 0-1.954.182-2.795.546a6.608 6.608 0 00-2.171 1.495 6.59 6.59 0 00-1.404 2.249 7.84 7.84 0 00-.494 2.808c0 1.04.16 1.993.481 2.86.32.867.776 1.612 1.365 2.236a5.947 5.947 0 002.158 1.443c.85.338 1.803.507 2.86.507zm2.834-8.502h-6.006c.017-.26.074-.555.169-.884.095-.33.26-.641.494-.936.234-.295.546-.542.936-.741.39-.2.88-.299 1.469-.299.901 0 1.573.243 2.015.728.442.485.75 1.196.923 2.132z" fill="#FB2740"/></g></svg>
