<svg xmlns="http://www.w3.org/2000/svg" viewBox="0 0 202 47"><g fill="none" fill-rule="nonzero"><path fill="#FFF" d="M4.06 42V31.308h.036L8.11 42h1.458l4.014-10.692h.036V42h1.62V29.148h-2.34l-4.068 10.8-4.05-10.8H2.44V42h1.62zm20.797.288c1.62 0 2.868-.411 3.744-1.233.876-.822 1.314-2.055 1.314-3.699v-8.208h-1.71v8.208c0 1.152-.285 2.025-.855 2.619-.57.594-1.401.891-2.493.891-1.152 0-2.034-.297-2.646-.891-.612-.594-.918-1.467-.918-2.619v-8.208h-1.71v8.208c0 1.716.465 2.967 1.395 3.753.93.786 2.223 1.179 3.879 1.179zM42.737 42v-1.44h-6.803V29.148h-1.71V42h8.514zm6.038 0V30.588h4.284v-1.44H42.78v1.44h4.284V42h1.71zm9.06 0V29.148h-1.71V42h1.71zm9.026.288c.588 0 1.179-.069 1.773-.207a5.13 5.13 0 001.61-.666c.48-.306.874-.702 1.18-1.188.306-.486.459-1.071.459-1.755 0-.636-.117-1.164-.351-1.584a3.127 3.127 0 00-.936-1.044 4.958 4.958 0 00-1.323-.657 17.945 17.945 0 00-1.503-.423c-.51-.12-1.011-.231-1.503-.333a7.87 7.87 0 01-1.323-.387c-.39-.156-.702-.357-.936-.603-.234-.246-.351-.567-.351-.963 0-.42.08-.771.243-1.053a1.89 1.89 0 01.648-.675 2.82 2.82 0 01.927-.36 5.228 5.228 0 011.062-.108c.888 0 1.617.207 2.187.621.57.414.903 1.083.999 2.007h1.62c-.024-.708-.16-1.317-.405-1.827a3.56 3.56 0 00-1.008-1.269 4.158 4.158 0 00-1.485-.738 6.867 6.867 0 00-1.836-.234c-.588 0-1.161.075-1.72.225a4.726 4.726 0 00-1.493.684 3.462 3.462 0 00-1.053 1.17c-.264.474-.396 1.035-.396 1.683 0 .588.117 1.077.35 1.467.235.39.547.708.937.954s.83.444 1.323.594c.492.15.993.282 1.503.396.51.114 1.01.225 1.503.333.492.108.933.249 1.323.423.39.174.702.399.936.675.234.276.35.636.35 1.08 0 .468-.095.852-.287 1.152-.192.3-.444.537-.756.711a3.42 3.42 0 01-1.053.369c-.39.072-.777.108-1.161.108-.48 0-.948-.06-1.404-.18a3.494 3.494 0 01-1.197-.558 2.864 2.864 0 01-.828-.963c-.21-.39-.315-.855-.315-1.395h-1.62c0 .78.14 1.455.423 2.025.282.57.666 1.038 1.152 1.404.486.366 1.05.639 1.692.819.642.18 1.323.27 2.043.27zM77.236 42v-5.256h3.924c1.296.012 2.277-.318 2.943-.99.666-.672.999-1.608.999-2.808 0-1.2-.333-2.133-1-2.799-.665-.666-1.646-.999-2.942-.999h-5.634V42h1.71zm3.348-6.696h-3.348v-4.716h3.348c.972 0 1.683.201 2.133.603.45.402.675.987.675 1.755 0 .768-.225 1.356-.675 1.764-.45.408-1.161.606-2.133.594zm13.615 6.984c1.02 0 1.914-.183 2.682-.549a5.57 5.57 0 001.926-1.485 6.373 6.373 0 001.16-2.151c.259-.81.388-1.653.388-2.529 0-.876-.13-1.719-.387-2.529a6.373 6.373 0 00-1.161-2.151A5.667 5.667 0 0096.88 29.4c-.768-.372-1.662-.558-2.682-.558s-1.914.186-2.682.558c-.768.372-1.41.87-1.926 1.494a6.373 6.373 0 00-1.161 2.151 8.282 8.282 0 00-.387 2.529c0 .876.129 1.719.387 2.529.258.81.645 1.527 1.16 2.151a5.57 5.57 0 001.927 1.485c.768.366 1.662.549 2.682.549zm0-1.422c-.78 0-1.452-.153-2.016-.459a4.05 4.05 0 01-1.386-1.215 5.206 5.206 0 01-.792-1.701 7.409 7.409 0 010-3.834c.168-.63.432-1.197.792-1.701a4.05 4.05 0 011.386-1.215c.564-.306 1.236-.459 2.016-.459s1.452.153 2.016.459a4.05 4.05 0 011.386 1.215c.36.504.624 1.071.792 1.701a7.409 7.409 0 010 3.834 5.206 5.206 0 01-.792 1.701 4.05 4.05 0 01-1.386 1.215c-.564.306-1.236.459-2.016.459zM105.726 42v-5.49h4.176c.42 0 .756.063 1.008.189s.456.294.612.504c.156.21.27.456.342.738.072.282.132.579.18.891.06.312.096.63.108.954l.036.909c.012.282.039.537.08.765.043.228.124.408.244.54h1.908a2.197 2.197 0 01-.405-.747 5.855 5.855 0 01-.207-.891 8.286 8.286 0 01-.09-.954c-.012-.324-.03-.642-.054-.954a8.273 8.273 0 00-.153-.9 2.732 2.732 0 00-.306-.783 1.973 1.973 0 00-.558-.603c-.234-.168-.537-.288-.91-.36v-.036c.78-.216 1.348-.618 1.702-1.206.354-.588.53-1.272.53-2.052 0-1.044-.344-1.866-1.034-2.466-.69-.6-1.647-.9-2.871-.9h-6.048V42h1.71zm3.564-6.93h-3.564v-4.482h4.248c.804 0 1.386.204 1.746.612.36.408.54.936.54 1.584 0 .468-.081.849-.243 1.143a1.922 1.922 0 01-.648.702c-.27.174-.585.291-.945.351s-.738.09-1.134.09zM122.22 42V30.588h4.285v-1.44h-10.278v1.44h4.284V42h1.71zm22.785 0v-1.44h-7.218v-4.446h6.678v-1.44h-6.678v-4.086h7.164v-1.44h-8.874V42h8.928zm8.7 0l4.573-12.852h-1.782l-3.708 11.142h-.036l-3.672-11.142h-1.836L151.762 42h1.944zm16.442 0v-1.44h-7.218v-4.446h6.678v-1.44h-6.678v-4.086h7.164v-1.44h-8.874V42h8.928zm5.245 0V31.686h.036L182.142 42h1.872V29.148h-1.62V39.57h-.036l-6.768-10.422h-1.818V42h1.62zm17.593 0V30.588h4.284v-1.44H186.99v1.44h4.284V42h1.71z"/><path fill="#FB2740" d="M4.648 23l1.344-3.816H12.4L13.696 23h3.912L11.2 5.864H7.336L.856 23h3.792zm6.768-6.624h-4.44l2.232-6.288h.048l2.16 6.288zm13.2 6.936c1.648 0 3-.432 4.056-1.296 1.056-.864 1.696-2.12 1.92-3.768h-3.288c-.112.768-.388 1.38-.828 1.836-.44.456-1.068.684-1.884.684-.528 0-.976-.12-1.344-.36a2.689 2.689 0 01-.876-.924 4.232 4.232 0 01-.468-1.26 6.74 6.74 0 010-2.772c.096-.472.26-.904.492-1.296.232-.392.532-.712.9-.96s.824-.372 1.368-.372c1.456 0 2.296.712 2.52 2.136h3.336c-.048-.8-.24-1.492-.576-2.076a4.689 4.689 0 00-1.308-1.464 5.67 5.67 0 00-1.824-.876 7.78 7.78 0 00-2.124-.288c-1.008 0-1.904.168-2.688.504a5.657 5.657 0 00-1.992 1.404 6.02 6.02 0 00-1.236 2.136 8.266 8.266 0 00-.42 2.676c0 .928.152 1.78.456 2.556a5.957 5.957 0 001.272 2.004c.544.56 1.204.996 1.98 1.308.776.312 1.628.468 2.556.468zm12.72-.192c.336 0 .68-.008 1.032-.024a8.11 8.11 0 00.96-.096v-2.64c-.16.032-.328.056-.504.072-.176.016-.36.024-.552.024-.576 0-.96-.096-1.152-.288-.192-.192-.288-.576-.288-1.152v-6.144h2.496v-2.28h-2.496v-3.72h-3.408v3.72H31.36v2.28h2.064v7.32c0 .624.104 1.128.312 1.512.208.384.492.68.852.888.36.208.776.348 1.248.42.472.072.972.108 1.5.108zm7.128-14.448V5.864h-3.408v2.808h3.408zm0 14.328V10.592h-3.408V23h3.408zm9.552 0l4.2-12.408h-3.384l-2.616 8.472h-.048l-2.616-8.472h-3.576L50.224 23h3.792zm11.352.312c1.408 0 2.608-.32 3.6-.96.992-.64 1.728-1.704 2.208-3.192h-3c-.112.384-.416.748-.912 1.092-.496.344-1.088.516-1.776.516-.96 0-1.696-.248-2.208-.744-.512-.496-.792-1.296-.84-2.4h8.952a8.76 8.76 0 00-.24-2.76 6.756 6.756 0 00-1.092-2.352 5.508 5.508 0 00-1.932-1.644c-.784-.408-1.704-.612-2.76-.612-.944 0-1.804.168-2.58.504a6.1 6.1 0 00-2.004 1.38 6.083 6.083 0 00-1.296 2.076 7.237 7.237 0 00-.456 2.592c0 .96.148 1.84.444 2.64.296.8.716 1.488 1.26 2.064a5.49 5.49 0 001.992 1.332c.784.312 1.664.468 2.64.468zm2.616-7.848H62.44c.016-.24.068-.512.156-.816.088-.304.24-.592.456-.864.216-.272.504-.5.864-.684.36-.184.812-.276 1.356-.276.832 0 1.452.224 1.86.672.408.448.692 1.104.852 1.968zM83.968 23V11.528h.048L91.144 23h3.768V5.864h-3.528V17.36h-.048L84.184 5.864H80.44V23h3.528zm19.92.312c.976 0 1.86-.152 2.652-.456a5.648 5.648 0 002.028-1.308 5.831 5.831 0 001.296-2.052c.304-.8.456-1.696.456-2.688 0-.992-.152-1.892-.456-2.7a5.81 5.81 0 00-1.296-2.064 5.784 5.784 0 00-2.028-1.32c-.792-.312-1.676-.468-2.652-.468-.976 0-1.856.156-2.64.468a5.808 5.808 0 00-2.016 1.32 5.81 5.81 0 00-1.296 2.064c-.304.808-.456 1.708-.456 2.7 0 .992.152 1.888.456 2.688.304.8.736 1.484 1.296 2.052a5.67 5.67 0 002.016 1.308c.784.304 1.664.456 2.64.456zm0-2.544c-.576 0-1.056-.112-1.44-.336a2.62 2.62 0 01-.924-.9 3.868 3.868 0 01-.492-1.272 7.447 7.447 0 010-2.916c.096-.48.26-.904.492-1.272.232-.368.54-.668.924-.9.384-.232.864-.348 1.44-.348s1.06.116 1.452.348c.392.232.704.532.936.9.232.368.396.792.492 1.272a7.447 7.447 0 010 2.916c-.096.472-.26.896-.492 1.272a2.59 2.59 0 01-.936.9c-.392.224-.876.336-1.452.336zM115.936 23v-5.592c0-.56.056-1.08.168-1.56.112-.48.3-.9.564-1.26.264-.36.612-.644 1.044-.852.432-.208.96-.312 1.584-.312.208 0 .424.012.648.036.224.024.416.052.576.084v-3.168c-.272-.08-.52-.12-.744-.12a4.07 4.07 0 00-1.248.192c-.4.128-.776.308-1.128.54a4.245 4.245 0 00-.936.84 4.191 4.191 0 00-.648 1.068h-.048v-2.304h-3.24V23h3.408zm10.752.12c.336 0 .68-.008 1.032-.024a8.11 8.11 0 00.96-.096v-2.64c-.16.032-.328.056-.504.072-.176.016-.36.024-.552.024-.576 0-.96-.096-1.152-.288-.192-.192-.288-.576-.288-1.152v-6.144h2.496v-2.28h-2.496v-3.72h-3.408v3.72h-2.064v2.28h2.064v7.32c0 .624.104 1.128.312 1.512.208.384.492.68.852.888.36.208.776.348 1.248.42.472.072.972.108 1.5.108zm7.032-.12v-6.504c0-1.264.208-2.172.624-2.724.416-.552 1.088-.828 2.016-.828.816 0 1.384.252 1.704.756.32.504.48 1.268.48 2.292V23h3.408v-7.632a10 10 0 00-.204-2.1c-.136-.632-.372-1.168-.708-1.608-.336-.44-.796-.784-1.38-1.032-.584-.248-1.332-.372-2.244-.372-.64 0-1.296.164-1.968.492-.672.328-1.224.852-1.656 1.572h-.072V5.864h-3.408V23h3.408zm17.136 0l2.112-8.328h.048L155.224 23h3.504l3.912-12.408h-3.504l-2.28 8.4h-.048l-2.112-8.4h-3.312l-2.064 8.424h-.048l-2.28-8.424h-3.6L147.328 23h3.528zm18.96.312c1.408 0 2.608-.32 3.6-.96.992-.64 1.728-1.704 2.208-3.192h-3c-.112.384-.416.748-.912 1.092-.496.344-1.088.516-1.776.516-.96 0-1.696-.248-2.208-.744-.512-.496-.792-1.296-.84-2.4h8.952a8.76 8.76 0 00-.24-2.76 6.756 6.756 0 00-1.092-2.352 5.508 5.508 0 00-1.932-1.644c-.784-.408-1.704-.612-2.76-.612-.944 0-1.804.168-2.58.504a6.1 6.1 0 00-2.004 1.38 6.083 6.083 0 00-1.296 2.076 7.237 7.237 0 00-.456 2.592c0 .96.148 1.84.444 2.64.296.8.716 1.488 1.26 2.064a5.49 5.49 0 001.992 1.332c.784.312 1.664.468 2.64.468zm2.616-7.848h-5.544c.016-.24.068-.512.156-.816.088-.304.24-.592.456-.864.216-.272.504-.5.864-.684.36-.184.812-.276 1.356-.276.832 0 1.452.224 1.86.672.408.448.692 1.104.852 1.968zm10.656 7.848c.704 0 1.396-.068 2.076-.204a5.263 5.263 0 001.812-.708c.528-.336.956-.78 1.284-1.332.328-.552.492-1.236.492-2.052 0-.576-.112-1.06-.336-1.452a3.076 3.076 0 00-.888-.984 4.776 4.776 0 00-1.26-.636c-.472-.16-.956-.296-1.452-.408-.48-.112-.952-.216-1.416-.312a10.95 10.95 0 01-1.236-.324 2.59 2.59 0 01-.876-.468.935.935 0 01-.336-.744c0-.256.064-.46.192-.612a1.26 1.26 0 01.468-.348c.184-.08.388-.132.612-.156.224-.024.432-.036.624-.036.608 0 1.136.116 1.584.348.448.232.696.676.744 1.332h3.24c-.064-.768-.26-1.404-.588-1.908a3.884 3.884 0 00-1.236-1.212 5.174 5.174 0 00-1.692-.648 9.83 9.83 0 00-1.956-.192c-.672 0-1.328.06-1.968.18-.64.12-1.216.328-1.728.624a3.45 3.45 0 00-1.236 1.212c-.312.512-.468 1.168-.468 1.968 0 .544.112 1.004.336 1.38.224.376.52.688.888.936.368.248.788.448 1.26.6.472.152.956.284 1.452.396 1.216.256 2.164.512 2.844.768.68.256 1.02.64 1.02 1.152 0 .304-.072.556-.216.756-.144.2-.324.36-.54.48-.216.12-.456.208-.72.264a3.645 3.645 0 01-.756.084c-.336 0-.66-.04-.972-.12a2.521 2.521 0 01-.828-.372 1.992 1.992 0 01-.588-.648c-.152-.264-.228-.58-.228-.948h-3.24c.032.832.22 1.524.564 2.076s.784.996 1.32 1.332a5.575 5.575 0 001.836.72c.688.144 1.392.216 2.112.216zm12.48-.192c.336 0 .68-.008 1.032-.024a8.11 8.11 0 00.96-.096v-2.64c-.16.032-.328.056-.504.072-.176.016-.36.024-.552.024-.576 0-.96-.096-1.152-.288-.192-.192-.288-.576-.288-1.152v-6.144h2.496v-2.28h-2.496v-3.72h-3.408v3.72h-2.064v2.28h2.064v7.32c0 .624.104 1.128.312 1.512.208.384.492.68.852.888.36.208.776.348 1.248.42.472.072.972.108 1.5.108z"/></g></svg>