<svg xmlns="http://www.w3.org/2000/svg" viewBox="0 0 32 32"><path d="M23.039 16.733H21.76a.64.64 0 110-1.28h1.279a.64.64 0 110 1.28zm-2.514-4.259a.64.64 0 11-.905-.905l.905-.905a.64.64 0 11.905.905l-.905.905zM16 19.933a3.84 3.84 0 11-.001-7.679A3.84 3.84 0 0116 19.933zm0-6.399a2.56 2.56 0 100 5.12 2.56 2.56 0 000-5.12zm0-2.56a.64.64 0 01-.64-.64v-1.28a.64.64 0 111.28 0v1.28a.64.64 0 01-.64.64zm-4.525 1.5l-.905-.905a.64.64 0 11.905-.905l.905.905a.64.64 0 11-.905.905zm-.594 3.62a.64.64 0 01-.64.64h-1.28a.64.64 0 110-1.28h1.28a.64.64 0 01.64.64zm.594 3.62a.64.64 0 11.905.905l-.905.905a.64.64 0 11-.905-.905l.905-.905zM16 21.213a.64.64 0 01.64.64v1.28a.64.64 0 01-1.28 0v-1.28a.64.64 0 01.64-.64zm4.525-1.499l.905.905a.64.64 0 11-.905.905l-.905-.905a.64.64 0 11.905-.905z"/></svg>