<svg xmlns="http://www.w3.org/2000/svg" viewBox="0 0 32 32"><path d="M25.581 14.059h-1.28a.64.64 0 110-1.279h1.28a.64.64 0 110 1.279zm-2.514-4.26a.64.64 0 11-.905-.905l.905-.905a.64.64 0 11.905.905l-.905.905zm-.943 4.994a3.84 3.84 0 01-2.942 6.305h-5.119a5.12 5.12 0 111.447-10.029 3.828 3.828 0 013.032-1.489 3.84 3.84 0 013.84 3.839c0 .485-.094.948-.258 1.374zm-11.901 1.186a3.839 3.839 0 003.839 3.839h5.119a2.56 2.56 0 100-5.119c-.512 0-.987.154-1.387.413a3.835 3.835 0 00-7.572.867zm8.319-5.119c-.708 0-1.349.287-1.812.752a5.159 5.159 0 011.801 1.873c.212-.036.428-.066.651-.066.68 0 1.318.179 1.872.489a2.56 2.56 0 00-2.512-3.048zm0-2.56a.64.64 0 01-.64-.64V6.38a.64.64 0 111.28 0v1.28a.64.64 0 01-.64.64zm-4.525 1.499l-.905-.905a.64.64 0 11.905-.905l.905.905a.64.64 0 11-.905.905z"/></svg>