<svg xmlns="http://www.w3.org/2000/svg" viewBox="0 0 32 32"><path d="M22.324 15.056a3.84 3.84 0 01-3.142 6.042h-5.119a5.119 5.119 0 111.818-9.903 3.838 3.838 0 013.622-2.575c.242 0 .477.025.706.068a2.56 2.56 0 003.065 3.065 3.824 3.824 0 01-.949 3.304zm-12.101.923a3.839 3.839 0 003.839 3.839h5.119a2.56 2.56 0 100-5.119c-.512 0-.987.154-1.387.413a3.835 3.835 0 00-7.571.867zm6.256-4.511h0zm2.451-1.502a2.557 2.557 0 00-1.896 1.848 5.159 5.159 0 011.498 1.67c.212-.036.428-.066.651-.066a3.82 3.82 0 012.242.727c.275-.313.475-.694.572-1.114a3.837 3.837 0 01-3.065-3.065z"/></svg>