<svg xmlns="http://www.w3.org/2000/svg" viewBox="0 0 32 32"><path d="M20.48 20.875v-1.402a2.558 2.558 0 00-1.279-4.774c-.512 0-.987.154-1.387.413a3.836 3.836 0 00-3.733-2.973 3.84 3.84 0 00-3.839 3.839c0 1.136.496 2.153 1.28 2.856v1.573a5.114 5.114 0 01-2.559-4.429 5.12 5.12 0 019.588-2.494c.212-.036.428-.066.651-.066a3.84 3.84 0 013.839 3.84 3.836 3.836 0 01-2.56 3.616zm-7.039.223c-.353 0-.32-.286-.32-.639v-2.56c0-.353-.033-.64.32-.64s.32.287.32.64v2.56c0 .353.033.639-.32.639zm0 1.28a.64.64 0 11-.001 1.281.64.64 0 01.001-1.281zm2.559 0c-.353 0-.32-.286-.32-.64v-2.559c0-.354-.033-.64.32-.64s.32.286.32.64v2.559c0 .354.033.64-.32.64zm0 1.28a.64.64 0 110 1.28.64.64 0 010-1.28zm2.56-2.56c-.353 0-.32-.286-.32-.639v-2.56c0-.353-.033-.64.32-.64s.32.287.32.64v2.56c0 .353.033.639-.32.639zm0 1.28a.64.64 0 11-.001 1.281.64.64 0 01.001-1.281z"/></svg>