<svg xmlns="http://www.w3.org/2000/svg" viewBox="0 0 32 32"><path d="M19.839 21.041v-1.306a2.56 2.56 0 001.92-2.476 2.56 2.56 0 00-2.56-2.56c-.512 0-.987.154-1.387.413a3.835 3.835 0 00-7.572.867c0 1.42.773 2.658 1.92 3.321v1.422a5.119 5.119 0 116.389-7.239c.212-.036.428-.066.651-.066a3.838 3.838 0 01.639 7.622zm-6.056-1.862a.64.64 0 01.874-.234l.703.405v-.811a.64.64 0 011.28 0v.811l.702-.406a.64.64 0 01.64 1.108l-.703.406.703.406a.64.64 0 11-.64 1.108l-.702-.405v.811a.64.64 0 11-1.28 0v-.811l-.702.406a.64.64 0 11-.64-1.108l.702-.406-.702-.406a.64.64 0 01-.235-.874zM16 21.099a.64.64 0 10-.001-1.281.64.64 0 00.001 1.281z"/></svg>