<svg xmlns="http://www.w3.org/2000/svg" viewBox="0 0 32 32"><path d="M24.559 22.362v.016h-1.2a.64.64 0 110-1.28h.96a.64.64 0 000-1.28.64.64 0 11.129-1.267 1.915 1.915 0 01.111 3.81zm-3.44-3.823a.64.64 0 11.129-1.267 1.915 1.915 0 01.111 3.81v.017H14.08a.64.64 0 000 1.28h7.279v.017a1.915 1.915 0 01-.111 3.81.64.64 0 10-.129-2.547H13.84v-.017a1.92 1.92 0 01-1.68-1.903c0-.338.094-.65.247-.925a5.117 5.117 0 116.141-7.328c.212-.036.428-.066.651-.066a3.838 3.838 0 013.775 3.156 3.18 3.18 0 00-1.552-.581 2.558 2.558 0 00-2.224-1.295c-.512 0-.987.154-1.387.413a3.835 3.835 0 00-7.572.867 3.84 3.84 0 003.84 3.84h7.039a.64.64 0 000-1.28z"/></svg>